<svg width="2838" height="469" viewBox="0 0 2838 469" fill="none" xmlns="http://www.w3.org/2000/svg">
<path d="M748 257.8H789C790.9 272 799.3 277.6 816.3 277.6C832.5 277.6 841.1 271.4 841.1 264.2C841.1 256.2 835.8 252 815 249.3L799.6 247.4C766.5 243.1 751.8 233.6 751.8 207.4C751.8 182.4 773.2 163.5 815.2 163.5C857.3 163.5 878.6 182.3 878.6 209.3H838.9C837.2 197.5 828.6 191.4 814.1 191.4C799.4 191.4 793.2 197.4 793.2 204.8C793.2 212.4 797 215.1 815 217.4L830.4 219.3C863.5 223.6 882.5 234.6 882.5 261.6C882.5 286.6 860.1 305.5 815.2 305.5C770.4 305.5 748 287.5 748 257.8ZM942.3 250.4L886.1 165.4H933.9L962.9 215.1L991.9 165.4H1039.7L983.5 250.4V303.6H942.1V250.4H942.3ZM1187.3 303.6V196.1H1143.5V165.4H1272.5V196.1H1228.7V303.6H1187.3ZM1375.7 303.6V249.3H1321V303.6H1279.6V165.4H1321V217H1375.7V165.4H1417.1V303.6H1375.7ZM1695 303.6L1666.2 261.3L1637.4 303.6H1589.3L1639.3 233.1L1591.5 165.4H1639.6L1666.3 205L1693 165.4H1741.1L1693.3 233.1L1743.3 303.6H1695ZM1900.6 303.6L1822.2 195.7V303.6H1799.6V165.4H1825.4L1903.8 273.3V165.4H1926.4V303.6H1900.6ZM1950.8 303.6V165.4H2058.4V183.1H1974.5V224.8H2051.6V241.5H1974.5V285.9H2058.4V303.6H1950.8ZM2115.9 303.6V183.1H2068.7V165.4H2187V183.1H2139.6V303.6H2115.9ZM2333.3 303.6L2301.5 195.5L2269.7 303.6H2241.3L2197.1 165.4H2222.7L2256 277.4L2289.1 165.4H2313.7L2346.8 277.4L2380.3 165.4H2405.9L2361.7 303.6H2333.3ZM2409.1 234.5C2409.1 192.4 2434.9 163.5 2483 163.5C2531.1 163.5 2556.9 192.4 2556.9 234.5C2556.9 276.6 2531.1 305.5 2483 305.5C2434.9 305.5 2409.1 276.6 2409.1 234.5ZM2533.2 234.5C2533.2 200.3 2516.1 181.1 2483 181.1C2449.9 181.1 2432.8 200.3 2432.8 234.5C2432.8 268.7 2449.9 287.9 2483 287.9C2516.1 287.9 2533.2 268.7 2533.2 234.5ZM2666.3 238.6C2682.7 242.1 2691.3 252.4 2691.3 267.5V289.6C2691.3 295.4 2692.2 300.3 2693.4 303.6H2671C2669.1 299.9 2667.6 295.6 2667.6 289.6V268.2C2667.6 250.5 2655.4 245.9 2639.2 245.9H2599.3V303.5H2575.6V165.3H2644.8C2676.2 165.3 2693.5 180.2 2693.5 204.3C2693.4 222.1 2684 233.9 2666.3 238.6ZM2642.1 181.7H2599.2V229.6H2642.1C2661.5 229.6 2669.7 220.1 2669.7 205.7C2669.7 191.3 2661.6 181.7 2642.1 181.7ZM2809.8 303.6L2759 238.6L2736.4 259.6V303.7H2712.7V165.5H2736.4V233.6L2807.7 165.5H2835.7L2774.6 222.8L2837.8 303.7H2809.8V303.6ZM1131.7 228.9L1090.3 165.4H1046.7V303.6H1086V219.7L1140.7 303.6H1180.2L1131.7 228.9ZM1533.8 286.3L1540 303.6H1582.3L1528.9 165.4H1477.6L1424.2 303.6H1466.5L1472.7 286.3L1484 253.3L1503.2 198.8L1522.4 253.3L1533.8 286.3Z" fill="#6EF2C9"/>
<path d="M579.6 215.7L559.3 205.6L510.6 181.3H313.9V232.3L316.7 233.6L420.4 285.3H579.6V215.7Z" fill="url(#paint0_linear_44_199)"/>
<path d="M0 256.6L17 265.1L62.4 287.7H265.7V240.1L259.6 237L132.9 174H0V256.6Z" fill="url(#paint1_linear_44_199)"/>
<path d="M579.6 215.7V344.2L559.3 354.3L525 371.4L446.4 410.5L375.5 445.8L328.8 469H92.8999L155.3 406.6L202.3 359.6L226.1 335.8H297.5L375.5 297L409.8 280L579.6 215.7Z" fill="url(#paint2_linear_44_199)"/>
<path d="M0 256.6V124.8L17 116.3L51.3 99.3L133.2 58.5L200.8 24.9L250.8 0H486.8L353.6 133.2H282.1L200.8 173.6L166.5 190.7L0 256.6Z" fill="url(#paint3_linear_44_199)"/>
<defs>
<linearGradient id="paint0_linear_44_199" x1="572.956" y1="296.824" x2="328.68" y2="155.791" gradientUnits="userSpaceOnUse">
<stop offset="0.075419" stop-color="#6EB3C9"/>
<stop offset="0.7486" stop-color="#6EF2C9"/>
</linearGradient>
<linearGradient id="paint1_linear_44_199" x1="29.2482" y1="144.739" x2="218.946" y2="334.437" gradientUnits="userSpaceOnUse">
<stop offset="0.2514" stop-color="#6EB3C9"/>
<stop offset="1" stop-color="#6EEFC9"/>
</linearGradient>
<linearGradient id="paint2_linear_44_199" x1="142.15" y1="472.246" x2="586.311" y2="246.95" gradientUnits="userSpaceOnUse">
<stop offset="0.075419" stop-color="#6EB3C9"/>
<stop offset="0.7542" stop-color="#6EF2C9"/>
</linearGradient>
<linearGradient id="paint3_linear_44_199" x1="370.379" y1="201.627" x2="59.3349" y2="22.0454" gradientUnits="userSpaceOnUse">
<stop offset="0.075419" stop-color="#6EB3C9"/>
<stop offset="0.7542" stop-color="#6EF2C9"/>
</linearGradient>
</defs>
</svg>
